<!DOCTYPE svg PUBLIC "-//W3C//DTD SVG 1.1//EN" "http://www.w3.org/Graphics/SVG/1.1/DTD/svg11.dtd">
<!-- Uploaded to: SVG Repo, www.svgrepo.com, Transformed by: SVG Repo Mixer Tools -->
<svg height="800px" width="800px" version="1.1" id="Layer_1" xmlns="http://www.w3.org/2000/svg" xmlns:xlink="http://www.w3.org/1999/xlink" viewBox="0 0 512 512" xml:space="preserve" fill="#990000" stroke="#990000">
<g id="SVGRepo_bgCarrier" stroke-width="0"/>
<g id="SVGRepo_tracerCarrier" stroke-linecap="round" stroke-linejoin="round"/>
<g id="SVGRepo_iconCarrier"> <path style="fill:#f06d56;" d="M256,468.234c0,0,89.646-79.788,119.11-107.2c41.888-38.968,126.69-120.608,126.69-190.576 S445.08,43.767,375.11,43.767c-54.778,0-101.432,34.766-119.11,83.436V468.234z"/> <path style="fill:#e1430e;" d="M256,127.203c-17.678-48.67-64.332-83.436-119.11-83.436c-69.97,0-126.69,56.721-126.69,126.69 s84.802,151.608,126.69,190.577C166.354,388.445,256,468.234,256,468.234V127.203z"/> <g> <path style="fill:#464158;" d="M375.11,33.568c-49.681,0-95.095,27.161-119.11,69.436c-24.015-42.275-69.429-69.436-119.11-69.436 C61.408,33.568,0,94.977,0,170.458c0,69.159,74.16,146.148,129.942,198.044c29.21,27.173,119.277,107.35,119.277,107.35 s0.005-0.007,0.005-0.008c0.766,0.682,1.634,1.262,2.6,1.695c1.339,0.601,2.761,0.893,4.174,0.893c2.454,0,4.878-0.885,6.782-2.58 c0.898-0.799,90.068-80.177,119.277-107.35C437.84,316.606,512,239.617,512,170.458C512,94.977,450.592,33.568,375.11,33.568z M65.891,271.114c-30.187-38.853-45.493-72.718-45.493-100.656c0-64.234,52.258-116.491,116.491-116.491 c48.255,0,91.798,30.095,108.911,75.07v316.439c-27.477-24.521-80.735-72.159-101.964-91.91 C128.848,339.623,93.746,306.967,65.891,271.114z M368.164,353.567c-21.229,19.75-74.487,67.389-101.964,91.91V129.038 c17.113-44.976,60.657-75.07,108.911-75.07c64.234-0.001,116.491,52.257,116.491,116.49c0,27.938-15.306,61.803-45.493,100.656 C418.254,306.967,383.152,339.623,368.164,353.567z"/> <path style="fill:#464158;" d="M376.353,324.421c-2.753,0-5.496-1.107-7.507-3.292c-3.814-4.144-3.548-10.597,0.597-14.411 c1.752-1.612,3.373-3.111,4.842-4.477c4.123-3.836,10.577-3.603,14.415,0.522c3.837,4.125,3.602,10.579-0.522,14.415 c-1.493,1.388-3.139,2.911-4.919,4.549C381.298,323.529,378.821,324.421,376.353,324.421z"/> <path style="fill:#464158;" d="M292.721,399.809c-2.804,0-5.593-1.148-7.609-3.402c-3.754-4.2-3.391-10.647,0.808-14.401 c21.992-19.654,40.851-36.579,56.058-50.31c4.18-3.775,10.629-3.446,14.404,0.734c3.775,4.181,3.446,10.63-0.735,14.405 c-15.232,13.753-34.117,30.704-56.133,50.379C297.568,398.954,295.139,399.809,292.721,399.809z"/> </g> </g>
</svg>